<svg xmlns="http://www.w3.org/2000/svg" viewBox="0 0 942 444" width="100%" role="img" font-family="-apple-system,BlinkMacSystemFont,'PingFang SC','Microsoft YaHei','Noto Sans CJK SC',sans-serif"><title>全国 31 省覆盖矩阵</title><rect width="942" height="444" rx="14" fill="#FAF9F6"/><text x="34" y="40" font-size="15" font-weight="600" fill="#2C2C2A">全国覆盖：31 个省级行政区</text><text x="34" y="64" font-size="12" fill="#7A7873">绿色 = 居民执行峰谷分时电价（22 个）；灰色 = 不执行（9 个）· 采集日期 2026-10-09</text><rect x="34" y="96" width="104" height="58" rx="7" fill="#2F7A38"/><text x="86" y="120" font-size="12.5" font-weight="600" fill="#FFFFFF">海南</text><text x="86" y="138" text-anchor="middle" font-size="11" fill="#FFFFFF">0.8075</text><rect x="144" y="96" width="104" height="58" rx="7" fill="#2F7A38"/><text x="196" y="120" font-size="12.5" font-weight="600" fill="#FFFFFF">广东</text><text x="196" y="138" text-anchor="middle" font-size="11" fill="#FFFFFF">0.7773</text><rect x="254" y="96" width="104" height="58" rx="7" fill="#63B463"/><text x="306" y="120" font-size="12.5" font-weight="600" fill="#FFFFFF">甘肃</text><text x="306" y="138" text-anchor="middle" font-size="11" fill="#FFFFFF">0.4980</text><rect x="364" y="96" width="104" height="58" rx="7" fill="#8FCB8F"/><text x="416" y="120" font-size="12.5" font-weight="600" fill="#1B3D1B">上海</text><text x="416" y="138" text-anchor="middle" font-size="11" fill="#1B3D1B">0.3100</text><rect x="474" y="96" width="104" height="58" rx="7" fill="#8FCB8F"/><text x="526" y="120" font-size="12.5" font-weight="600" fill="#1B3D1B">安徽</text><text x="526" y="138" text-anchor="middle" font-size="11" fill="#1B3D1B">0.2800</text><rect x="584" y="96" width="104" height="58" rx="7" fill="#8FCB8F"/><text x="636" y="120" font-size="12.5" font-weight="600" fill="#1B3D1B">重庆</text><text x="636" y="138" text-anchor="middle" font-size="11" fill="#1B3D1B">0.2800</text><rect x="694" y="96" width="104" height="58" rx="7" fill="#8FCB8F"/><text x="746" y="120" font-size="12.5" font-weight="600" fill="#1B3D1B">浙江</text><text x="746" y="138" text-anchor="middle" font-size="11" fill="#1B3D1B">0.2800</text><rect x="804" y="96" width="104" height="58" rx="7" fill="#B7DDB7"/><text x="856" y="120" font-size="12.5" font-weight="600" fill="#1B3D1B">河北</text><text x="856" y="138" text-anchor="middle" font-size="11" fill="#1B3D1B">0.2500</text><rect x="34" y="160" width="104" height="58" rx="7" fill="#B7DDB7"/><text x="86" y="184" font-size="12.5" font-weight="600" fill="#1B3D1B">宁夏</text><text x="86" y="202" text-anchor="middle" font-size="11" fill="#1B3D1B">0.2500</text><rect x="144" y="160" width="104" height="58" rx="7" fill="#B7DDB7"/><text x="196" y="184" font-size="12.5" font-weight="600" fill="#1B3D1B">陕西</text><text x="196" y="202" text-anchor="middle" font-size="11" fill="#1B3D1B">0.2500</text><rect x="254" y="160" width="104" height="58" rx="7" fill="#B7DDB7"/><text x="306" y="184" font-size="12.5" font-weight="600" fill="#1B3D1B">湖北</text><text x="306" y="202" text-anchor="middle" font-size="11" fill="#1B3D1B">0.2400</text><rect x="364" y="160" width="104" height="58" rx="7" fill="#B7DDB7"/><text x="416" y="184" font-size="12.5" font-weight="600" fill="#1B3D1B">福建</text><text x="416" y="202" text-anchor="middle" font-size="11" fill="#1B3D1B">0.2300</text><rect x="474" y="160" width="104" height="58" rx="7" fill="#B7DDB7"/><text x="526" y="184" font-size="12.5" font-weight="600" fill="#1B3D1B">山西</text><text x="526" y="202" text-anchor="middle" font-size="11" fill="#1B3D1B">0.2208</text><rect x="584" y="160" width="104" height="58" rx="7" fill="#B7DDB7"/><text x="636" y="184" font-size="12.5" font-weight="600" fill="#1B3D1B">湖南</text><text x="636" y="202" text-anchor="middle" font-size="11" fill="#1B3D1B">0.2000</text><rect x="694" y="160" width="104" height="58" rx="7" fill="#B7DDB7"/><text x="746" y="184" font-size="12.5" font-weight="600" fill="#1B3D1B">江苏</text><text x="746" y="202" text-anchor="middle" font-size="11" fill="#1B3D1B">0.2000</text><rect x="804" y="160" width="104" height="58" rx="7" fill="#B7DDB7"/><text x="856" y="184" font-size="12.5" font-weight="600" fill="#1B3D1B">山东</text><text x="856" y="202" text-anchor="middle" font-size="11" fill="#1B3D1B">0.2000</text><rect x="34" y="224" width="104" height="58" rx="7" fill="#B7DDB7"/><text x="86" y="248" font-size="12.5" font-weight="600" fill="#1B3D1B">北京</text><text x="86" y="266" text-anchor="middle" font-size="11" fill="#1B3D1B">0.1883</text><rect x="144" y="224" width="104" height="58" rx="7" fill="#B7DDB7"/><text x="196" y="248" font-size="12.5" font-weight="600" fill="#1B3D1B">河南</text><text x="196" y="266" text-anchor="middle" font-size="11" fill="#1B3D1B">0.1500</text><rect x="254" y="224" width="104" height="58" rx="7" fill="#B7DDB7"/><text x="306" y="248" font-size="12.5" font-weight="600" fill="#1B3D1B">江西</text><text x="306" y="266" text-anchor="middle" font-size="11" fill="#1B3D1B">0.1500</text><rect x="364" y="224" width="104" height="58" rx="7" fill="#DCEEDC"/><text x="416" y="248" font-size="12.5" font-weight="600" fill="#1B3D1B">广西</text><text x="416" y="266" text-anchor="middle" font-size="11" fill="#1B3D1B">待核实</text><rect x="474" y="224" width="104" height="58" rx="7" fill="#DCEEDC"/><text x="526" y="248" font-size="12.5" font-weight="600" fill="#1B3D1B">内蒙古*</text><text x="526" y="266" text-anchor="middle" font-size="11" fill="#1B3D1B">待核实</text><rect x="584" y="224" width="104" height="58" rx="7" fill="#DCEEDC"/><text x="636" y="248" font-size="12.5" font-weight="600" fill="#1B3D1B">四川</text><text x="636" y="266" text-anchor="middle" font-size="11" fill="#1B3D1B">待核实</text><rect x="694" y="224" width="104" height="58" rx="7" fill="#E9E7E0" stroke="#D6D3C9" stroke-width="0.8"/><text x="746" y="248" font-size="12.5" font-weight="600" fill="#6B6A64" text-anchor="middle">贵州</text><text x="746" y="266" text-anchor="middle" font-size="11" fill="#9A9890">不执行</text><rect x="804" y="224" width="104" height="58" rx="7" fill="#E9E7E0" stroke="#D6D3C9" stroke-width="0.8"/><text x="856" y="248" font-size="12.5" font-weight="600" fill="#6B6A64" text-anchor="middle">黑龙江</text><text x="856" y="266" text-anchor="middle" font-size="11" fill="#9A9890">不执行</text><rect x="34" y="288" width="104" height="58" rx="7" fill="#E9E7E0" stroke="#D6D3C9" stroke-width="0.8"/><text x="86" y="312" font-size="12.5" font-weight="600" fill="#6B6A64" text-anchor="middle">吉林</text><text x="86" y="330" text-anchor="middle" font-size="11" fill="#9A9890">不执行</text><rect x="144" y="288" width="104" height="58" rx="7" fill="#E9E7E0" stroke="#D6D3C9" stroke-width="0.8"/><text x="196" y="312" font-size="12.5" font-weight="600" fill="#6B6A64" text-anchor="middle">辽宁</text><text x="196" y="330" text-anchor="middle" font-size="11" fill="#9A9890">不执行</text><rect x="254" y="288" width="104" height="58" rx="7" fill="#E9E7E0" stroke="#D6D3C9" stroke-width="0.8"/><text x="306" y="312" font-size="12.5" font-weight="600" fill="#6B6A64" text-anchor="middle">青海</text><text x="306" y="330" text-anchor="middle" font-size="11" fill="#9A9890">不执行</text><rect x="364" y="288" width="104" height="58" rx="7" fill="#E9E7E0" stroke="#D6D3C9" stroke-width="0.8"/><text x="416" y="312" font-size="12.5" font-weight="600" fill="#6B6A64" text-anchor="middle">天津</text><text x="416" y="330" text-anchor="middle" font-size="11" fill="#9A9890">不执行</text><rect x="474" y="288" width="104" height="58" rx="7" fill="#E9E7E0" stroke="#D6D3C9" stroke-width="0.8"/><text x="526" y="312" font-size="12.5" font-weight="600" fill="#6B6A64" text-anchor="middle">新疆</text><text x="526" y="330" text-anchor="middle" font-size="11" fill="#9A9890">不执行</text><rect x="584" y="288" width="104" height="58" rx="7" fill="#E9E7E0" stroke="#D6D3C9" stroke-width="0.8"/><text x="636" y="312" font-size="12.5" font-weight="600" fill="#6B6A64" text-anchor="middle">西藏</text><text x="636" y="330" text-anchor="middle" font-size="11" fill="#9A9890">不执行</text><rect x="694" y="288" width="104" height="58" rx="7" fill="#E9E7E0" stroke="#D6D3C9" stroke-width="0.8"/><text x="746" y="312" font-size="12.5" font-weight="600" fill="#6B6A64" text-anchor="middle">云南</text><text x="746" y="330" text-anchor="middle" font-size="11" fill="#9A9890">不执行</text><line x1="34" y1="370" x2="908" y2="370" stroke="#E8E6DF" stroke-width="1"/><text x="34" y="394" font-size="11.5" fill="#7A7873">色深表示峰谷价差（元/kWh），越深越省钱；「待核实」表示时段已确认但电价值未从官方原文核实</text><text x="34" y="414" font-size="11.5" fill="#7A7873">* 内蒙古为蒙东电网口径；数据来源均为政府 / 发改委 / 电网公司公开信息</text></svg>